# xmcd
#
# Track frame offsets:
#	150
#	17645
#	31550
#	47441
#	61976
#	80271
#	92831
#	118850
#	136520
#	156974
#	174711
#	189619
#	205156
#	221816
#	241222
#	253966
#	266540
#	282828
#	302119
#	342350
#
# Disc length: 4770 seconds
#
# Revision: 2
# Processed by: cddbd v1.5.2PL0 Copyright (c) Steve Scherf et al.
# Submitted via: audiograbber 1.83.01
#
DISCID=1912a014
DTITLE=Various Artist - Music from EMI - Eight
DYEAR=2005
DGENRE=Pop
TTITLE0=Rolling Stones, The - It Won't Take Long
TTITLE1=McCartney, Paul - Fine Line
TTITLE2=Gorillaz - Dare
TTITLE3=Dandy Warhols, The - Smoke It
TTITLE4=Doves - Sky Starts Falling
TTITLE5=Shout Out Louds - The Comeback
TTITLE6=Queen and Paul Rodgers - Fat Bottomed Girls (Live)
TTITLE7=Marlin, Lene - How Would It Be
TTITLE8=Tennant - Lowe - No Time For Tears
TTITLE9=Juan Maclean, The - Give Me Every Little Thing
TTITLE10=Cunetta, Jenn - Come Rain Come Shine
TTITLE11=McKeown, Erin - White Dity
TTITLE12=K-OS - Man I Used To Be
TTITLE13=Wire Dasies - Truth That Hurts
TTITLE14=Dupri, Jermaine - Gotta Getcha
TTITLE15=Research, The - C'mon Chameleon
TTITLE16=Raitt, Bonnie - I Will Not Be Broken
TTITLE17=Harvey, Mick - Come On Spring
TTITLE18=Ros, Sigur - Glósóli
TTITLE19=Copy Control - Data
EXTD=
EXTT0=
EXTT1=
EXTT2=
EXTT3=
EXTT4=
EXTT5=
EXTT6=
EXTT7=
EXTT8=
EXTT9=
EXTT10=
EXTT11=
EXTT12=
EXTT13=
EXTT14=
EXTT15=
EXTT16=
EXTT17=
EXTT18=
EXTT19=
PLAYORDER=
